#N canvas 0 69 1128 626 12;
#X obj 400 340 vline~;
#X obj 400 478 *~;
#X obj 400 399 tabread4~ grain_array;
#X obj 560 400 tabread4~ window;
#X msg 400 310 \$1 \, \$2 \$3;
#X obj 400 40 inlet;
#X obj 400 207 t f f;
#X obj 440 240 +;
#X obj 400 276 pack f f f;
#X obj 480 30 r grain_size;
#X obj 480 180 * 44.1;
#X obj 590 30 r grain_speed;
#X obj 550 180 /;
#X obj 400 507 outlet~;
#X floatatom 400 119 5 0 0 0 - - -, f 5;
#X floatatom 480 109 5 0 0 0 - - -, f 5;
#X floatatom 590 109 5 0 0 0 - - -, f 5;
#X obj 590 137 t b f;
#X connect 0 0 2 0;
#X connect 0 0 3 0;
#X connect 1 0 13 0;
#X connect 2 0 1 0;
#X connect 3 0 1 1;
#X connect 4 0 0 0;
#X connect 5 0 14 0;
#X connect 6 0 8 0;
#X connect 6 1 7 0;
#X connect 7 0 8 1;
#X connect 8 0 4 0;
#X connect 9 0 15 0;
#X connect 10 0 7 1;
#X connect 11 0 16 0;
#X connect 12 0 8 2;
#X connect 14 0 6 0;
#X connect 15 0 10 0;
#X connect 15 0 12 0;
#X connect 16 0 17 0;
#X connect 17 0 12 0;
#X connect 17 1 12 1;
